<svg version="1" xmlns="http://www.w3.org/2000/svg" width="1066.667" height="1066.667" viewBox="0 0 800.000000 800.000000"><path d="M231.5 104.6c-4.4 1.8-8.5 6.5-9.9 11.5-1.3 4.2-1.2 4.9 3 16.8 2.4 6.8 5.5 14.9 6.9 17.9 3.4 7.4 11.7 21.2 12.7 21.2.5 0-2.3 3.7-6.3 8.2-16.1 18.6-27.8 40.7-34.3 65.2-4.2 15.4-5.1 23.3-5.1 42.6 0 19.8.7 25.8 4.6 41.5 3.1 12.3 7.2 23.2 12.9 34.5 3.6 7.2 16.1 26 18.8 28.4 1.2 1.1 2.2 2.3 2.2 2.8s-5.4 6.4-11.9 13.1c-6.5 6.7-14.1 14.5-16.7 17.4-2.7 2.8-11.2 11.7-18.9 19.8-22 23.1-22.2 23.3-24.5 29.6-2.7 7.2-3.4 18-1.4 22.7 1.4 3.4 4.9 6.9 24.8 24.6 3.8 3.3 9.2 8.2 12 10.7 2.8 2.5 10.3 9.2 16.6 14.9 16.1 14.5 27.3 24.6 33.9 30.7 3.4 3.2 6.5 5.3 7.9 5.3 2.4 0 7.2-4.4 7.2-6.5 0-.6-4.4-5.2-9.7-10.1-11.5-10.6-12.4-11.4-32.2-30.3-36.7-34.9-38.3-36.7-38.4-44.5-.2-14.5 14.7-24.7 70-47.9l20.2-8.5 7.6 23.7c4.2 13 8 24.5 8.5 25.6.5 1.1 1.8 4.9 3 8.5 3.7 11 12 34.4 13 36.5 6.2 13.6 17 47.4 20.5 64.5.2.8 1.5 6 2.8 11.5 2.2 8.6 10.6 45.1 12.1 52.5.8 4 7.5 32.3 8.2 34.7.3 1.3.9 2.3 1.3 2.4 3.3.6 7.6.3 8.8-.6 1.2-.9 1.2-2.1.3-7.5-.6-3.6-1.3-7.6-1.5-9-.7-4.8-1.6-9.5-2-11-.2-.8-.6-3.3-1-5.5-.3-2.2-.7-4.7-1-5.5-.2-.8-.6-2.7-.9-4.2-5.4-31.6-19.4-90.7-22.4-94.8-3.2-4.3-5.3-11.2-7.7-25.5-.9-5.4-1.8-23.8-1.8-36.5 0-12.1 1.2-40 1.8-41 .1-.3.6-3.4.9-7 .4-3.6 1.1-8.2 1.5-10.2.5-2 .7-3.9.5-4-.2-.2 4.1 1.1 9.4 2.9 5.3 1.7 10.8 3.4 12.2 3.6 1.4.3 4.3 1 6.5 1.5 4.5 1.2 9 1.9 19 3.2 7.4.9 39.9.6 47.5-.5 6.6-1 24.9-5.2 29.7-6.9l4.1-1.4 13.7 27.1c7.6 15 14.8 29 16 31.2 7.9 14.1 16.6 31.9 18 36.8 3.4 11.7 2 25.4-4.2 42.2-2.5 6.7-21.6 51.6-27 63.3-6.6 14.4-21.7 51.4-22.7 55.4-.3 1.6-.3 2.9.1 2.9.5.1 2.3.3 4.1.5 3.7.3 4.9-1.2 11.1-13.6 1.8-3.6 8.3-16.2 14.4-28s15-29.2 19.9-38.5c24.9-48.3 40-79.3 40.5-83.1.4-3.3-.2-5.4-3.5-12-9.8-19.7-13.9-35.1-14.7-55.4l-.3-9.5 2.1 2.9c15.5 20.9 30 36 52.4 54.8 19.6 16.3 26 24 27.7 32.8.3 1.4 1.2 5.6 2 9.5 1.6 7 4 20.4 5.1 28 .4 2.2.8 5.1 1 6.5 2 12.9 3.7 25.1 4.1 28 .2 1.9.5 4.4.8 5.5.2 1.1.7 4.5 1.1 7.5.3 3 .8 6.7 1.1 8.1.2 1.5.6 4.7.9 7 1 8.1 1.5 11.3 2.5 19.4 1.9 13.8 2.1 14.9 2.5 17.5.2 1.4.7 4.5 1.1 7 .3 2.5 1.1 4.8 1.7 5.3.9.6 6.1.4 9.4-.2.2-.1.1-1.6-.2-3.4-.2-1.7-.7-6.4-1-10.2-.3-3.9-.8-8.4-1-10-.2-1.7-.6-5.7-.9-9-.5-6-1.3-13.5-2.1-21-.3-2.2-.7-6-.9-8.5-.5-4.2-2.1-17.8-3-26-.3-1.9-.7-5.5-1.1-8-.3-2.5-.7-6.1-.9-8-.6-5.7-1.6-13.3-2.1-15.5-.2-1.1-.7-4.3-1-7-.4-2.8-1.3-8.8-2-13.5-.8-4.7-1.7-10.3-2.1-12.4-.3-2.2-1.2-6.7-1.9-10-3.5-15.3-3.4-15.2-11.5-23.5-11.2-11.5-21-27-26.6-41.7-5-13.5-7-25-7.9-45.9-1.1-28.2-8.3-57.4-19.8-80-11-21.9-27.8-38.3-45.7-44.8-10.8-3.9-16.9-4.7-35.5-4.2-9.9.2-19.1.6-20.5.9-1.4.2-4.7.7-7.5 1.1-2.7.3-5.7.8-6.5 1-.8.2-2.6.6-4 .9-1.4.2-8.6 1.8-16 3.6-16.2 3.8-16.3 3.9-22 4.5-2.5.3-5.6.8-7 1.1-1.4.3-9.5.7-18.1.9-18.1.5-24.5-.6-35.9-6.3-25.1-12.4-37.9-43.5-29-70.3 3.6-10.6 6.6-14.5 13.1-16.9 3.1-1.1 6.2-2.7 6.9-3.5.7-.8 1.8-1.5 2.5-1.5s4.1-2.9 7.6-6.3c5.8-5.7 11.7-15.2 14.3-23.1.6-1.7 1.5-1.8 12.4-1.2 14.9.7 25.8 2.6 39.7 6.9 17.5 5.5 21.4 7.1 54 23.3 25.1 12.5 33.3 15.6 41.2 15.5 4.5 0 11.3-2.2 11.3-3.6 0-.2-1.7-.4-3.8-.3-2.1 0-4.7-.4-5.8-1-1-.5-4.1-2-6.9-3.3-2.7-1.3-18.5-11.4-35.1-22.4-16.6-11-31-20.6-32-21.2-3.2-2.1-16.6-8.5-21.9-10.4l-5-1.9 5 .5c17.7 1.7 44.8 9.3 78 21.9 31.2 11.9 46.7 14.6 56.2 9.7 6-3 5.9-3.7-.5-3.7-4-.1-8.2-1-14.2-3.4-7.3-2.8-52.8-25.4-73-36.2-8.4-4.5-22.3-10-33-13.1-8.3-2.4-10.6-2.9-22-4.7-5.6-.9-39.8-.7-43.5.3-1.1.2-4 .8-6.5 1.2-6.5 1.1-6.7 1.1-15.9 3.5l-8.4 2.1-5.1-2.4c-6.7-3.3-7.9-3.6-17.6-4.7-7.2-.8-9.6-1.7-20.3-7.3-14.3-7.5-20.2-10.7-27.7-15.3-6.1-3.7-12-4.7-16.5-2.8z"/></svg>